<svg xmlns="http://www.w3.org/2000/svg" width="225" height="96" fill="none"><path fill="#fff" d="M29.01 34.943a1.301 1.301 0 0 0-1.02-.49h-4.864a1.31 1.31 0 0 0-1.276 1.027l-3.628 16.481c-.322 1.51-1.221 3.304-3.673 3.304a4.566 4.566 0 0 1-2.993-1.155 1.152 1.152 0 0 0-.767-.296c-.366 0-.695.172-.903.468l-2.682 3.804a1.12 1.12 0 0 0 .179 1.488C9.195 61.116 11.995 62 15.064 62c5.87 0 9.147-3.026 10.627-9.805l3.574-16.152a1.298 1.298 0 0 0-.256-1.1ZM57.755 34.88a1.14 1.14 0 0 0-.892-.427H51.58c-.54 0-.998.37-1.115.895l-3.3 14.914c-.504 2.32-1.922 5.083-5.803 5.083-3.19 0-4.655-1.962-4.688-3.899 0-.511.047-.855.091-.972l.01-.03 3.235-14.606a1.14 1.14 0 0 0-1.115-1.389h-5.32c-.541 0-.998.37-1.115.896l-3.344 15.078c-.08.41-.204 1.337-.204 1.809 0 6.114 4.655 9.764 12.45 9.764 7.298 0 11.676-3.75 13.39-11.464l3.23-14.697c.073-.34-.007-.691-.226-.962v.008ZM91.364 34.943a1.303 1.303 0 0 0-1.023-.49H82.54c-.56 0-1.085.3-1.37.778L73.315 48.34l-1.999-12.721a1.373 1.373 0 0 0-1.363-1.166h-7.29c-.775 0-1.462.552-1.63 1.308l-5.34 24.218c-.083.38.008.771.253 1.07.245.304.607.476.994.476h4.652c.756 0 1.422-.537 1.586-1.276l3.201-14.555 2.365 14.676a1.365 1.365 0 0 0 1.355 1.155h1.575c.48 0 .929-.256 1.177-.665l9.067-15.03-3.15 14.314a1.132 1.132 0 0 0 1.107 1.377h4.974c.668 0 1.26-.475 1.403-1.129L91.62 36.04a1.292 1.292 0 0 0-.26-1.104l.004.008ZM116.795 41.258c0-3.278-2.426-6.805-7.751-6.805h-12.91a1.41 1.41 0 0 0-1.371 1.104l-5.401 24.506a1.2 1.2 0 0 0 .237 1.016c.23.289.574.45.94.45h14.398c3.164 0 5.741-.932 7.451-2.694 1.418-1.458 2.196-3.424 2.196-5.532 0-1.904-.888-4.06-2.843-5.135 2.843-.873 5.054-3.779 5.054-6.914v.004Zm-12.45 13.813h-6.337l.903-4.009h6.344c1.096 0 1.805.662 1.805 1.689 0 1.388-1.093 2.32-2.715 2.32Zm2.054-10.506h-6.059l.822-3.654h5.949c.994 0 1.688.628 1.688 1.53 0 .64-.233 2.124-2.4 2.124ZM164.873 48.051c3.161-.278 5.964-3.358 5.964-6.793 0-3.436-2.449-6.44-7.386-6.44h-12.758c-.577 0-1.078.403-1.202.965l-5.306 24.075a1.071 1.071 0 0 0 1.045 1.302h14.11c6.793 0 9.282-4.265 9.282-7.861 0-2.251-1.264-4.583-3.753-5.252l.004.004Zm-6.122 7.386h-6.793l1.067-4.74h6.636c1.342 0 2.171.87 2.171 2.054 0 1.502-1.144 2.686-3.081 2.686Zm2.054-10.507h-6.516l.987-4.385h6.242c1.224 0 2.054.83 2.054 1.897 0 1.184-.673 2.488-2.767 2.488ZM193.256 34.819h-17.347a1.36 1.36 0 0 0-1.327 1.063l-5.273 23.929a1.11 1.11 0 0 0 1.085 1.349h17.118c.478 0 .891-.333.994-.797l.92-4.18a.776.776 0 0 0-.76-.944h-11.551l.986-4.462h8.135c.479 0 .892-.332.994-.8l.95-4.316a.663.663 0 0 0-.65-.807h-8.128l.91-4.108h11.665c.475 0 .888-.329.994-.793l.969-4.276a.701.701 0 0 0-.684-.855v-.003ZM216.699 34.819h-19.726a.984.984 0 0 0-.961.767l-.925 4.078a.885.885 0 0 0 .863 1.078h6.278l-4.247 19.43a.818.818 0 0 0 .797.991h4.919c.501 0 .935-.35 1.045-.84l4.279-19.58h6.52c.508 0 .943-.352 1.052-.849l.899-4.085a.814.814 0 0 0-.796-.99h.003ZM145.311 41.192C143.264 36.755 138.422 34 132.674 34c-8.932 0-15.926 6.874-15.926 15.652 0 7.144 5.766 12.333 13.715 12.333 4.297 0 8.288-1.578 11.233-4.447a1.96 1.96 0 0 0 .545-.99l3.176-14.296c.08-.362.043-.739-.106-1.06ZM130.857 55.25c-3.775 0-6.311-2.422-6.311-6.033 0-4.755 3.395-8.482 7.733-8.482 3.775 0 6.311 2.423 6.311 6.034 0 4.754-3.395 8.481-7.733 8.481Z"/></svg>